<svg width="18" height="18" viewBox="0 0 18 18" fill="none" xmlns="http://www.w3.org/2000/svg">
<path d="M8.99999 6.30084C8.6456 6.30084 8.29462 6.37066 7.96709 6.5063C7.63956 6.64194 7.34207 6.84076 7.09136 7.09135C6.84076 7.34207 6.64189 7.63955 6.50628 7.96708C6.37067 8.29461 6.30081 8.64559 6.30081 8.99998C6.30081 9.35449 6.37067 9.70547 6.50628 10.033C6.64189 10.3604 6.84076 10.658 7.09136 10.9086C7.34207 11.1592 7.63956 11.3581 7.96709 11.4937C8.29462 11.6294 8.6456 11.6992 8.99999 11.6992C9.71584 11.6992 10.4025 11.4149 10.9086 10.9086C11.4148 10.4025 11.6992 9.71584 11.6992 8.99998C11.6992 8.28413 11.4148 7.59761 10.9086 7.09135C10.4025 6.58521 9.71584 6.30084 8.99999 6.30084ZM8.99999 4.5006C9.59708 4.49094 10.1902 4.60019 10.7445 4.822C11.2989 5.04382 11.8037 5.37374 12.2293 5.79256C12.655 6.21138 12.993 6.71069 13.2238 7.26148C13.4546 7.81227 13.5734 8.40348 13.5734 9.00057C13.5734 9.59778 13.4546 10.189 13.2238 10.7397C12.993 11.2905 12.655 11.7899 12.2293 12.2086C11.8037 12.6274 11.2989 12.9574 10.7445 13.1792C10.1902 13.401 9.59708 13.5102 8.99999 13.5006C7.80639 13.5006 6.66168 13.0265 5.81764 12.1824C4.97359 11.3384 4.49942 10.1937 4.49942 8.99998C4.49942 7.80638 4.97359 6.66167 5.81764 5.81761C6.66168 4.97358 7.80639 4.5006 8.99999 4.5006ZM14.8496 4.27557C14.8545 4.4263 14.829 4.57649 14.7747 4.71719C14.7203 4.85789 14.6383 4.98624 14.5334 5.09459C14.4285 5.20295 14.3029 5.28911 14.164 5.34796C14.0251 5.4068 13.8758 5.43712 13.725 5.43712C13.5742 5.43712 13.4249 5.4068 13.286 5.34796C13.1473 5.28911 13.0215 5.20295 12.9167 5.09459C12.8118 4.98624 12.7297 4.85789 12.6754 4.71719C12.6211 4.57649 12.5956 4.4263 12.6005 4.27557C12.6005 3.97716 12.719 3.69097 12.93 3.47996C13.141 3.26895 13.4272 3.15042 13.7256 3.15042C14.024 3.15042 14.3102 3.26895 14.5212 3.47996C14.7322 3.69097 14.8496 3.97716 14.8496 4.27557ZM8.99999 1.80142C6.77325 1.80142 6.41038 1.80613 5.37479 1.85208C4.66789 1.88625 4.19545 1.9805 3.75599 2.15133C3.36602 2.30214 3.08444 2.48358 2.78401 2.78401C2.50125 3.05617 2.28564 3.38841 2.15015 3.756C1.97932 4.19663 1.88507 4.66908 1.85208 5.3748C1.80495 6.36799 1.80024 6.71552 1.80024 8.99998C1.80024 11.2267 1.80613 11.5908 1.85208 12.6264C1.88624 13.3309 1.9805 13.8045 2.15015 14.244C2.30331 14.6352 2.48357 14.9167 2.78283 15.216C3.08562 15.5176 3.3672 15.699 3.75482 15.8487C4.19898 16.0207 4.67261 16.1161 5.37479 16.1479C6.36796 16.195 6.71552 16.1998 8.99999 16.1998C11.2267 16.1998 11.5908 16.1939 12.6264 16.1479C13.3297 16.1149 13.8045 16.0207 14.244 15.8498C14.6328 15.6979 14.9167 15.5176 15.216 15.2183C15.5188 14.9144 15.699 14.6328 15.8487 14.2464C16.0207 13.8022 16.1161 13.3274 16.1479 12.6264C16.195 11.6332 16.1998 11.2856 16.1998 8.99998C16.1998 6.77325 16.1939 6.41041 16.1479 5.3748C16.1149 4.67025 16.0207 4.19545 15.8487 3.756C15.7131 3.38879 15.4969 3.05665 15.216 2.78401C14.944 2.50207 14.6117 2.28537 14.244 2.15015C13.8034 1.97932 13.3297 1.88507 12.6264 1.85208C11.6332 1.80495 11.2856 1.80142 8.99999 1.80142ZM8.99999 0C11.4459 0 11.751 0.00942534 12.71 0.0541957C13.6691 0.098966 14.3206 0.249771 14.8955 0.472445C15.4893 0.701009 15.99 1.01087 16.4896 1.51041C16.9479 1.96047 17.3025 2.50478 17.5276 3.10565C17.7502 3.67824 17.901 4.33094 17.9458 5.28997C17.9882 6.25018 18 6.55532 18 9.00116C18 11.4459 17.9906 11.751 17.9458 12.71C17.901 13.6691 17.7502 14.3206 17.5276 14.8955C17.3025 15.4964 16.9479 16.0407 16.4908 16.4896C16.0406 16.9472 15.4963 17.3013 14.8955 17.5276C14.3218 17.7502 13.6679 17.901 12.71 17.9458C11.751 17.9882 11.4459 18 8.99999 18C6.55529 18 6.25015 17.9906 5.28997 17.9458C4.33212 17.901 3.67941 17.7502 3.10565 17.5276C2.50468 17.3024 1.96022 16.9486 1.51041 16.4908C1.05295 16.0407 0.699136 15.4964 0.473623 14.8955C0.249771 14.3218 0.098966 13.6679 0.0541956 12.71C0.0117817 11.751 0 11.4459 0 8.99998C0 6.55532 0.00942534 6.25018 0.0541956 5.28997C0.098966 4.33094 0.249771 3.67942 0.472445 3.10565C0.698653 2.50478 1.0521 1.96047 1.51041 1.51041C1.96032 1.05276 2.50475 0.698924 3.10565 0.473623C3.67941 0.249771 4.33094 0.098966 5.28997 0.0541957C6.25015 0.0117817 6.55529 0 9.00117 0H8.99999Z" fill="#E67028"/>
</svg>
